<?xml version="1.0" encoding="utf-8"?>
<!-- Generator: Adobe Illustrator 22.0.1, SVG Export Plug-In . SVG Version: 6.00 Build 0)  -->
<svg version="1.1" id="Layer_5" xmlns="http://www.w3.org/2000/svg" xmlns:xlink="http://www.w3.org/1999/xlink" x="0px" y="0px"
	 viewBox="0 0 512 512" style="enable-background:new 0 0 512 512;" xml:space="preserve">
<style type="text/css">
	.st0{fill:#009BDF;}
	.st1{fill:#FFFFFF;}
	.st2{fill:#6BC1D3;}
</style>
<path class="st0" d="M502.6,255.3c0-25.2-7.5-49.4-22.4-71.9c-13.4-20.2-32.1-38.1-55.7-53.1C378.9,101.2,319.1,85.2,256,85.2
	c-21.1,0-41.9,1.8-62,5.3c-12.5-11.7-27.1-22.2-42.6-30.6C68.6,19.8,0,59,0,59s63.8,52.4,53.4,98.3c-28.5,28.3-44,62.5-44,98
	c0,0.1,0,0.2,0,0.3s0,0.2,0,0.3c0,35.5,15.5,69.7,44,98C63.8,399.9,0,452.4,0,452.4s68.6,39.2,151.4-0.9
	c15.5-8.3,30.1-18.9,42.6-30.6c20.2,3.5,40.9,5.3,62,5.3c63.1,0,122.9-16,168.5-45.1c23.6-15.1,42.3-32.9,55.7-53.1
	c14.9-22.5,22.4-46.7,22.4-71.9c0-0.1,0-0.2,0-0.3C502.6,255.5,502.6,255.4,502.6,255.3z"/>
<path class="st1" d="M256,120.8c116.9,0,211.6,60.5,211.6,135.2c0,74.6-94.7,135.2-211.6,135.2c-26,0-50.9-3-74-8.5
	c-23.4,28.1-74.9,67.3-124.9,54.6c16.3-17.5,40.4-47,35.2-95.6c-30-23.3-48-53.2-48-85.7C44.4,181.4,139.1,120.8,256,120.8"/>
<g>
	<path class="st2" d="M256,373.4c-26,0-50.9-2.6-74-7.4c-20.7,21.5-63.2,50.5-107.3,49.4c-5.8,8.8-12.1,16-17.6,21.9
		c50,12.7,101.5-26.5,124.9-54.6c23,5.5,47.9,8.5,74,8.5c115.9,0,210-59.5,211.6-133.4C466,321.8,371.9,373.4,256,373.4z"/>
</g>
<g>
	<path class="st0" d="M293.2,219.2c7.4,6.6,4.5,23.7-8.7,43.1c-13.8,20.4-34.3,36.8-49.8,41c43.6,3.1,89.4-9.9,106-31.2
		C358.1,249.9,336.9,226.6,293.2,219.2"/>
	<path class="st0" d="M277.3,217.3c-43.6-3.1-89.4,9.9-106,31.2c-17.5,22.4,3.7,45.6,47.5,53c-7.4-6.6-4.5-23.7,8.7-43.1
		C241.3,238,261.8,221.5,277.3,217.3"/>
</g>
</svg>
